<svg width="176" height="67" fill="none" xmlns="http://www.w3.org/2000/svg">
    <path fill-rule="evenodd" clip-rule="evenodd"
        d="M1.192 49.932c0 .732.193.925.885.925h4.846c.73 0 .885-.154.885-.886V16.99c0-.655-.193-.848-.808-.848H2.154c-.846 0-.962.154-.962 1.002v32.787z"
        fill="#2A343E" />
    <path fill-rule="evenodd" clip-rule="evenodd"
        d="M159 25.621c1.346-.077 2.577-.154 3.846-.193 1.769-.038 3.577-.038 5.346.27 3.27.578 5.193 2.389 5.962 5.625.384 1.657.538 3.352.577 5.047.077 2.62.077 5.24-.423 7.86-.346 1.772-.962 3.429-2.385 4.662-1.077.925-2.346 1.348-3.692 1.618a22.913 22.913 0 01-5.385.385c-2.115-.077-4.269-.23-6.384-.385-1.077-.077-2.116-.27-3.193-.424-.577-.077-.807-.385-.884-.963-.039-.193-.039-.347-.039-.54V17.223v-.347c.039-.732.154-.847.923-.847H158c.846 0 .962.115.962.963V25.62H159zm0 19.302c2.077.232 4.115.463 6.192.155 1.116-.155 2-.732 2.385-1.811.192-.54.346-1.117.385-1.695.077-1.965.076-3.892.076-5.857 0-.578-.115-1.156-.23-1.733-.385-1.773-1.308-2.582-3.116-2.659-1.846-.077-3.654-.077-5.5-.115-.038 0-.115.038-.192.038v13.677z"
        fill="#F00843" />
    <path fill-rule="evenodd" clip-rule="evenodd"
        d="M76.077 35.985c0-.81.077-1.618 0-2.389-.192-1.233-1.154-2.003-2.538-2.196a15.64 15.64 0 00-1.924-.115H64.27c-1.038 0-1.077-.039-1.077-1.04v-3.276c0-.462.193-.693.654-.77 3.73-.694 7.462-.81 11.23-.501 1.578.116 3.078.462 4.5 1.156 1.809.925 2.77 2.466 3.04 4.43.115.733.153 1.503.153 2.274v15.026c-.038 1.117-.384 1.425-1.461 1.656-3.154.617-6.385.81-9.616.848-1.807 0-3.653-.039-5.461-.385-2.539-.501-4.154-1.965-4.654-4.547-.385-2.003-.423-4.045.154-6.01.615-2.042 2.077-3.236 4.115-3.66 1.23-.27 2.539-.386 3.808-.462 2-.078 3.961 0 5.961-.04h.462zm.038 4.392c-2.076 0-4.115-.077-6.192 0-1.23.039-1.846.732-2 1.926-.077.463-.038 1.002.039 1.465.115.924.692 1.502 1.615 1.695.654.115 1.308.192 2 .192 1.538.039 3.077-.077 4.577-.423v-4.855h-.039zM48.423 31.323c-1.077.039-2.154.308-2.808 1.31-.5.694-.653 1.541-.73 2.35a38.133 38.133 0 000 6.627c.077.963.269 1.926 1 2.697.692.77 1.615 1.002 2.577 1.002 2.576.038 5.115.038 7.692.077h.461c.77.038.923.192.962.963v3.082c0 .732-.23.964-.962 1.118-3.038.578-6.115.654-9.23.539-1.846-.077-3.693-.308-5.385-1.156-1.385-.693-2.308-1.81-2.885-3.236-.692-1.734-.923-3.583-.923-5.433-.038-2.62.039-5.278.154-7.898.077-1.425.423-2.812 1.116-4.122.73-1.387 1.846-2.312 3.307-2.851 1.462-.54 2.962-.732 4.5-.81 2.616-.115 5.231-.077 7.808.27.577.077 1.154.154 1.73.27.462.077.731.347.731.809v3.622c0 .462-.23.693-.692.693H52.5s-2.73.039-4.077.077z"
        fill="#2A343E" />
    <path fill-rule="evenodd" clip-rule="evenodd"
        d="M132.846 40.493c.154.924.231 1.733.423 2.543.308 1.31 1.308 1.887 2.577 2.042.846.077 1.692.154 2.539.154h7.192c.884 0 1 .154 1 1.001v3.198c0 .694-.154.848-.846.963-3.462.617-6.962.655-10.462.501-1.5-.038-3.038-.27-4.461-.847-2.193-.848-3.385-2.582-3.962-4.778a18.59 18.59 0 01-.615-4.816c0-2.311.038-4.662.192-6.973.077-1.349.423-2.697.962-3.93.923-2.042 2.576-3.16 4.692-3.66 2.923-.655 5.923-.655 8.884-.27 1 .116 2.039.347 2.962.694 2.077.77 3.192 2.427 3.769 4.469.5 1.772.616 3.621.693 5.432.038 1.04 0 2.08 0 3.12 0 .733-.27 1.003-1 1.08-.308.038-.616.038-.924.038h-13.615v.039zm9-4.392c-.115-.964-.231-1.85-.423-2.736-.192-.925-.808-1.618-1.731-1.888-1.538-.462-3.077-.424-4.615 0-.577.154-1.039.501-1.385 1.002-.731 1.117-.769 2.389-.769 3.66h8.923v-.038z"
        fill="#F00843" />
    <path fill-rule="evenodd" clip-rule="evenodd"
        d="M34.385 36.948c-.039-1.888-.154-3.853-.654-5.817-.577-2.12-1.73-3.776-3.808-4.662-1.154-.501-2.423-.732-3.692-.81a78.94 78.94 0 00-5.23-.076c-1.578.038-3.116.23-4.616.77-1.5.54-2.654 1.503-3.423 2.928-.846 1.618-1.154 3.39-1.27 5.201a67.545 67.545 0 00-.076 6.242c.038 1.464.269 2.89.538 4.354.23 1.348.808 2.62 1.77 3.621 1.23 1.272 2.845 1.811 4.538 2.08 2.192.347 4.423.347 6.654.232 1.5-.077 3-.27 4.422-.77 1.154-.425 2.116-1.08 2.847-2.043.807-1.078 1.192-2.273 1.461-3.544.385-1.773.462-3.545.462-5.433l.077-2.273zm-6.616 2.273c-.077 1.04-.153 2.158-.346 3.237-.307 1.733-1.115 2.465-2.846 2.774a9.714 9.714 0 01-3.5-.039c-1.5-.308-2.27-1.156-2.577-2.774-.346-2.042-.308-4.122-.23-6.203.038-.616.115-1.233.192-1.81.346-1.965 1.115-2.813 3.076-3.006a14.22 14.22 0 013.385.077c1.539.231 2.346 1.233 2.577 3.044.154 1.079.192 2.196.27 3.39v1.31z"
        fill="#2A343E" />
    <path
        d="M92.5 26.546c-.115-.54-.23-.77-.654-.77h-5.961-.039c-.038 0-.038 0-.077.038-.038 0-.038.038-.038.038l-.039.039s0 .038-.038.038c0 .039-.039.039-.039.077 0 0 0 .039-.038.077v.155c0 .076 0 .154.038.23 0 .116.039.232.077.347.308 1.118 1.885 6.858 3.346 12.098 0 .039 0 .039.039.077 1.308 4.662 2.5 9.016 2.615 9.401.462 1.349 1.385 2.466 2.846 2.466 0 0 1.077-3.892 2.347-8.553C94.96 35.6 92.654 27.2 92.5 26.546zM108.192 26.392c0-.078-.038-.116-.038-.193a.645.645 0 00-.115-.231v-.039l-.039-.038s0 .038.039.038c0 .039.038.039.038.077 0 0 0 .039.038.077v.154c0 .077 0 .155-.038.232 0 .115-.038.23-.077.346-.308 1.118-1.846 6.781-3.308 11.982 0 .039 0 .078.039.116 0 .039 0 .039.038.077 1.308 4.662 2.5 9.016 2.616 9.4.461 1.35 1.384 2.467 2.846 2.467 0 0 .5-1.811 1.192-4.392.269-1.04.616-2.197.923-3.39.077-.232.116-.463.193-.733a2183.716 2183.716 0 01-4.347-15.95z"
        fill="#2A343E" />
    <path
        d="M123.846 26.199v-.077c0-.039 0-.077-.038-.077 0-.039-.039-.039-.039-.077 0 0 0-.039-.038-.039l-.039-.038-.038-.039c-.039 0-.039-.038-.077-.038h-6c-.423.038-.538.27-.654.77-.154.655-2.461 9.093-4.346 15.874-.077.23-.115.5-.192.732-.346 1.233-.654 2.389-.923 3.39-.731 2.62-1.193 4.392-1.193 4.392h4.654c1.462 0 2.423-1.117 2.846-2.465.116-.386 1.346-4.74 2.616-9.401 0-.039 0-.039.038-.077 1.462-5.24 3.039-10.98 3.346-12.098.039-.116.077-.231.077-.347 0-.077.039-.154.039-.23-.039-.116-.039-.155-.039-.155zM108.115 26.199v-.077c0-.039 0-.077-.038-.077 0-.039-.039-.039-.039-.077 0 0 0-.039-.038-.039l-.038-.038-.039-.039c-.038 0-.038-.038-.077-.038h-6c-.423.038-.538.27-.654.77-.154.655-2.461 9.093-4.346 15.835-1.27 4.662-2.346 8.515-2.346 8.553h4.731c1.461 0 2.384-1.117 2.846-2.465.115-.386 1.346-4.74 2.615-9.401 0-.039 0-.039.039-.077 1.461-5.24 3.038-10.98 3.346-12.098.038-.116.077-.231.077-.347 0-.077.038-.154.038-.23-.077-.116-.077-.155-.077-.155z"
        fill="#F00843" />
</svg>